<?xml version="1.0" encoding="UTF-8" standalone="no"?> <svg width="64" height="64" viewBox="0 0 64 64" fill="none" xmlns="http://www.w3.org/2000/svg">
<path d="M55 7V57C55 58.0609 54.5786 59.0783 53.8284 59.8284C53.0783 60.5786 52.0609 61 51 61H13C11.9391 61 10.9217 60.5786 10.1716 59.8284C9.42143 59.0783 9 58.0609 9 57V7C9 5.93913 9.42143 4.92172 10.1716 4.17157C10.9217 3.42143 11.9391 3 13 3H51C52.0609 3 53.0783 3.42143 53.8284 4.17157C54.5786 4.92172 55 5.93913 55 7ZM51 48V8C51 7.73478 50.8946 7.48043 50.7071 7.29289C50.5196 7.10536 50.2652 7 50 7H14C13.7348 7 13.4804 7.10536 13.2929 7.29289C13.1054 7.48043 13 7.73478 13 8V48C13 48.2652 13.1054 48.5196 13.2929 48.7071C13.4804 48.8946 13.7348 49 14 49H50C50.2652 49 50.5196 48.8946 50.7071 48.7071C50.8946 48.5196 51 48.2652 51 48ZM36 55C35.9984 54.4701 35.7872 53.9623 35.4125 53.5875C35.0377 53.2128 34.5299 53.0016 34 53H30C29.4708 53.0039 28.9643 53.2159 28.5901 53.5901C28.2159 53.9644 28.0039 54.4708 28 55C28.0016 55.5299 28.2128 56.0377 28.5875 56.4125C28.9623 56.7872 29.4701 56.9984 30 57H34C34.5292 56.9961 35.0356 56.7841 35.4099 56.4099C35.7841 56.0356 35.9961 55.5292 36 55V55Z" fill="CurrentColor"/>
<path d="M31 13H19V21H31V13Z" fill="CurrentColor"/>
<path d="M51 2H13C11.6744 2.00159 10.4036 2.52888 9.46622 3.46622C8.52888 4.40356 8.00159 5.6744 8 7V57C8.00159 58.3256 8.52888 59.5964 9.46622 60.5338C10.4036 61.4711 11.6744 61.9984 13 62H51C52.3256 61.9984 53.5964 61.4711 54.5338 60.5338C55.4711 59.5964 55.9984 58.3256 56 57V7C55.9984 5.6744 55.4711 4.40356 54.5338 3.46622C53.5964 2.52888 52.3256 2.00159 51 2V2ZM54 57C54 57.7956 53.6839 58.5587 53.1213 59.1213C52.5587 59.6839 51.7956 60 51 60H13C12.2044 60 11.4413 59.6839 10.8787 59.1213C10.3161 58.5587 10 57.7956 10 57V7C10 6.20435 10.3161 5.44129 10.8787 4.87868C11.4413 4.31607 12.2044 4 13 4H51C51.7956 4 52.5587 4.31607 53.1213 4.87868C53.6839 5.44129 54 6.20435 54 7V57Z" fill="CurrentColor"/>
<path d="M50 6H14C13.4696 6 12.9609 6.21071 12.5858 6.58579C12.2107 6.96086 12 7.46957 12 8V48C12 48.5304 12.2107 49.0391 12.5858 49.4142C12.9609 49.7893 13.4696 50 14 50H50C50.5304 50 51.0391 49.7893 51.4142 49.4142C51.7893 49.0391 52 48.5304 52 48V8C52 7.46957 51.7893 6.96086 51.4142 6.58579C51.0391 6.21071 50.5304 6 50 6V6ZM50 48H14V8H50V48Z" fill="CurrentColor"/>
<path d="M34 52H30C29.2044 52 28.4413 52.3161 27.8787 52.8787C27.3161 53.4413 27 54.2044 27 55C27 55.7956 27.3161 56.5587 27.8787 57.1213C28.4413 57.6839 29.2044 58 30 58H34C34.7956 58 35.5587 57.6839 36.1213 57.1213C36.6839 56.5587 37 55.7956 37 55C37 54.2044 36.6839 53.4413 36.1213 52.8787C35.5587 52.3161 34.7956 52 34 52ZM34 56H30C29.7348 56 29.4804 55.8946 29.2929 55.7071C29.1054 55.5196 29 55.2652 29 55C29 54.7348 29.1054 54.4804 29.2929 54.2929C29.4804 54.1054 29.7348 54 30 54H34C34.2652 54 34.5196 54.1054 34.7071 54.2929C34.8946 54.4804 35 54.7348 35 55C35 55.2652 34.8946 55.5196 34.7071 55.7071C34.5196 55.8946 34.2652 56 34 56Z" fill="CurrentColor"/>
<path d="M19 22H31C31.2652 22 31.5196 21.8946 31.7071 21.7071C31.8946 21.5196 32 21.2652 32 21V13C32 12.7348 31.8946 12.4804 31.7071 12.2929C31.5196 12.1054 31.2652 12 31 12H19C18.7348 12 18.4804 12.1054 18.2929 12.2929C18.1054 12.4804 18 12.7348 18 13V21C18 21.2652 18.1054 21.5196 18.2929 21.7071C18.4804 21.8946 18.7348 22 19 22ZM20 14H30V20H20V14Z" fill="CurrentColor"/>
<path d="M46 20H34V22H46V20Z" fill="CurrentColor"/>
<path d="M42 16H34V18H42V16Z" fill="CurrentColor"/>
<path d="M46 16H44V18H46V16Z" fill="CurrentColor"/>
<path d="M36 12H34V14H36V12Z" fill="CurrentColor"/>
<path d="M46 12H38V14H46V12Z" fill="CurrentColor"/>
<path d="M46 26H24V28H46V26Z" fill="CurrentColor"/>
<path d="M42 30H18V32H42V30Z" fill="CurrentColor"/>
<path d="M46 30H44V32H46V30Z" fill="CurrentColor"/>
<path d="M46 34H18V36H46V34Z" fill="CurrentColor"/>
<path d="M46 38H18V40H46V38Z" fill="CurrentColor"/>
<path d="M42 42H18V44H42V42Z" fill="CurrentColor"/>
</svg>
