<svg width="48" height="48" viewBox="0 0 48 48" fill="none" xmlns="http://www.w3.org/2000/svg">
<rect width="48" height="48" rx="8" fill="#135DEA"/>
<path fill-rule="evenodd" clip-rule="evenodd" d="M32.6858 16.742H26.4085C24.961 16.742 23.7875 15.5685 23.7875 14.121C23.7875 12.6735 22.6141 11.5 21.1665 11.5H14.8892C12.3351 11.5072 10.2644 13.572 10.25 16.1261V31.6555C10.2465 32.887 10.7342 34.069 11.6049 34.9398C12.4757 35.8106 13.6577 36.2982 14.8892 36.2947H32.6858C35.248 36.2947 37.325 34.2177 37.325 31.6555V21.3943C37.325 18.83 35.2501 16.7492 32.6858 16.742ZM35.6476 29.1263L35.0578 31.3934C34.7405 33.2715 33.1226 34.6519 31.2181 34.6697H28.9116C26.9831 34.6308 25.3677 33.1985 25.098 31.2886L24.5476 29.2311C24.2027 27.4622 25.1046 25.6852 26.7362 24.9196V23.3732C26.7346 22.0862 27.7441 21.0248 29.0295 20.9618H30.9953C31.6313 20.9653 32.24 21.2213 32.6873 21.6735C33.1346 22.1257 33.3839 22.7371 33.3804 23.3732V24.9196C33.8789 25.1557 34.3246 25.49 34.6909 25.9024C35.4636 26.7867 35.8128 27.9637 35.6476 29.1263ZM31.4671 23.3732C31.4706 23.2584 31.4284 23.147 31.3497 23.0635C31.2711 22.9799 31.1624 22.931 31.0477 22.9276H29.0296C28.7886 22.9347 28.597 23.1321 28.5971 23.3732V24.5395H31.4147L31.4671 23.3732ZM28.3481 26.5053H31.7816C32.338 26.5136 32.8636 26.762 33.2232 27.1867C33.5937 27.6118 33.7696 28.1725 33.708 28.7331L33.1314 31.0003C32.9961 31.9649 32.1789 32.6876 31.205 32.7039H28.8985C27.8837 32.6823 27.0451 31.9056 26.9458 30.8954L26.4085 28.8249C26.3178 28.2338 26.4956 27.6332 26.8934 27.1867C27.2537 26.7557 27.7863 26.5062 28.3481 26.5053ZM30.0648 30.8692C30.6077 30.8692 31.0477 30.4292 31.0477 29.8864V28.5759C31.0477 28.033 30.6077 27.593 30.0648 27.593C29.522 27.593 29.082 28.033 29.082 28.5759V29.8864C29.082 30.4292 29.522 30.8692 30.0648 30.8692Z" fill="white"/>
</svg>
