<svg width="48" height="48" viewBox="0 0 48 48" fill="none" xmlns="http://www.w3.org/2000/svg">
<path fill-rule="evenodd" clip-rule="evenodd" d="M12 8H36C40.4183 8 44 11.5817 44 16V34C44 38.4183 40.4183 42 36 42H12C7.58172 42 4 38.4183 4 34V16C4 11.5817 7.58172 8 12 8ZM26.8 27.1L39.48 17.7C40.0459 17.284 40.1708 16.4897 39.76 15.92C39.5641 15.648 39.2665 15.4669 38.935 15.4179C38.6034 15.3689 38.2661 15.4563 38 15.66L25.18 25C24.8592 25.3362 24.4147 25.5265 23.95 25.5265C23.4853 25.5265 23.0408 25.3362 22.72 25L10 15.66C9.73516 15.4627 9.40254 15.3792 9.0759 15.428C8.74926 15.4768 8.45559 15.6539 8.26 15.92C7.84484 16.4845 7.96073 17.2778 8.52 17.7L21.12 27C21.904 27.7438 22.9394 28.1651 24.02 28.18C25.049 28.1798 26.0407 27.7945 26.8 27.1Z" fill="#135DEA"/>
</svg>
