<svg width="48" height="48" viewBox="0 0 48 48" fill="none" xmlns="http://www.w3.org/2000/svg">
<path fill-rule="evenodd" clip-rule="evenodd" d="M38 11.54H22.36V11.66C22.3163 9.20606 20.3143 7.23966 17.86 7.24005H14.1C11.6716 7.22802 9.67581 9.15287 9.59995 11.58C7.44893 11.7612 5.77341 13.5227 5.69995 15.68V32.32C5.77341 34.4774 7.44893 36.2389 9.59995 36.42C9.67581 38.8472 11.6716 40.7721 14.1 40.76H17.86C20.3143 40.7604 22.3163 38.794 22.36 36.34V36.46H38C40.3564 36.516 42.3145 34.6562 42.38 32.3V15.68C42.3486 14.5501 41.8694 13.4789 41.0479 12.7024C40.2263 11.9259 39.1299 11.5078 38 11.54ZM19.36 36.2601C19.36 37.0885 18.6884 37.7601 17.86 37.7601H14.1C13.7005 37.7655 13.3158 37.6092 13.0333 37.3267C12.7508 37.0442 12.5945 36.6595 12.6 36.2601V11.7401C12.5945 11.3406 12.7508 10.9559 13.0333 10.6734C13.3158 10.3909 13.7005 10.2346 14.1 10.2401H17.86C18.6884 10.2401 19.36 10.9116 19.36 11.7401V36.2601ZM24.6905 30.7651C24.9123 31.2901 25.4301 31.6282 26 31.6201C26.366 31.6201 26.717 31.4747 26.9758 31.2159C27.2346 30.9571 27.38 30.6061 27.38 30.2401C27.388 29.6703 27.0499 29.1524 26.525 28.9306C26.0001 28.7088 25.3931 28.8273 24.9901 29.2303C24.5872 29.6332 24.4687 30.2402 24.6905 30.7651ZM26 25.3801C25.2378 25.3801 24.62 24.7622 24.62 24.0001C24.62 23.2379 25.2378 22.6201 26 22.6201C26.7621 22.6201 27.38 23.2379 27.38 24.0001C27.38 24.7622 26.7621 25.3801 26 25.3801ZM30.0305 30.7651C30.2523 31.2901 30.7701 31.6282 31.34 31.6201C32.1021 31.6201 32.72 31.0022 32.72 30.2401C32.728 29.6703 32.3899 29.1524 31.865 28.9306C31.3401 28.7088 30.7331 28.8273 30.3301 29.2303C29.9272 29.6332 29.8087 30.2402 30.0305 30.7651ZM31.34 25.3801C30.5778 25.3801 29.96 24.7622 29.96 24.0001C29.96 23.2379 30.5778 22.6201 31.34 22.6201C32.1021 22.6201 32.7199 23.2379 32.7199 24.0001C32.7199 24.7622 32.1021 25.3801 31.34 25.3801ZM35.3505 30.7651C35.5723 31.2901 36.0901 31.6282 36.66 31.6201C37.4221 31.6201 38.04 31.0022 38.04 30.2401C38.048 29.6703 37.7099 29.1524 37.185 28.9306C36.6601 28.7088 36.0531 28.8273 35.6501 29.2303C35.2472 29.6332 35.1287 30.2402 35.3505 30.7651ZM36.66 25.3801C36.0984 25.3964 35.5831 25.0707 35.3568 24.5565C35.1306 24.0423 35.2386 23.4423 35.6299 23.0393C36.0212 22.6363 36.6178 22.5107 37.1384 22.7217C37.659 22.9328 37.9997 23.4383 38 24.0001C38.0003 24.7469 37.4064 25.3584 36.66 25.3801ZM24.98 19.2601H37.68C38.5084 19.2601 39.18 18.5885 39.18 17.7601C39.18 16.9316 38.5084 16.2601 37.68 16.2601H24.98C24.1515 16.2601 23.48 16.9316 23.48 17.7601C23.48 18.5885 24.1515 19.2601 24.98 19.2601Z" fill="#135DEA"/>
</svg>
